<?xml version="1.0" encoding="utf-8"?>
<!-- Generator: Adobe Illustrator 16.0.0, SVG Export Plug-In . SVG Version: 6.00 Build 0)  -->
<!DOCTYPE svg PUBLIC "-//W3C//DTD SVG 1.1//EN" "http://www.w3.org/Graphics/SVG/1.1/DTD/svg11.dtd">
<svg version="1.1" id="Layer_1" xmlns="http://www.w3.org/2000/svg" xmlns:xlink="http://www.w3.org/1999/xlink" x="0px" y="0px"
	 width="32px" height="32px" viewBox="0 0 32 32" enable-background="new 0 0 32 32" xml:space="preserve">
<g>
	<g xmlns:default="http://www.w3.org/2000/svg">
		<g>
			<path d="M30.08,5.2c0-1.088-0.832-1.92-1.92-1.92h-4.48V2.64c0-0.384-0.256-0.64-0.64-0.64S22.4,2.256,22.4,2.64v0.64H9.6V2.64
				C9.6,2.256,9.344,2,8.96,2S8.32,2.256,8.32,2.64v0.64H4.48c-1.088,0-1.92,0.832-1.92,1.92H1.92C0.832,5.2,0,6.032,0,7.12v21.12
				c0,1.088,0.832,1.92,1.92,1.92h28.16c1.088,0,1.92-0.832,1.92-1.92V7.12C32,6.032,31.168,5.2,30.08,5.2z M23.68,4.56h4.48
				c0.384,0,0.64,0.256,0.64,0.64h-5.12V4.56z M9.6,4.56h12.8V5.2H9.6V4.56z M4.48,4.56h3.84V5.2H3.84
				C3.84,4.816,4.096,4.56,4.48,4.56z M30.721,28.24c0,0.385-0.257,0.641-0.641,0.641H1.92c-0.384,0-0.64-0.256-0.64-0.641V7.12
				c0-0.384,0.256-0.64,0.64-0.64h0.64h5.76V8.4c0,0.384,0.256,0.64,0.64,0.64S9.6,8.784,9.6,8.4V6.48h12.8V8.4
				c0,0.384,0.256,0.64,0.64,0.64s0.64-0.256,0.64-0.64V6.48h6.4c0.384,0,0.641,0.256,0.641,0.64V28.24z M7.552,12.752
				c-0.256-0.256-0.64-0.256-0.896,0c-0.256,0.256-0.256,0.64,0,0.896l0.832,0.832c0.128,0.128,0.32,0.192,0.448,0.192
				s0.32-0.064,0.448-0.192c0.256-0.256,0.256-0.64,0-0.896L7.552,12.752z M13.312,12.752c-0.256-0.256-0.64-0.256-0.896,0
				s-0.256,0.64,0,0.896l0.832,0.832c0.128,0.128,0.32,0.192,0.448,0.192c0.128,0,0.32-0.064,0.448-0.192
				c0.256-0.256,0.256-0.64,0-0.896L13.312,12.752z M19.072,12.752c-0.256-0.256-0.641-0.256-0.896,0s-0.256,0.64,0,0.896
				l0.832,0.832c0.128,0.128,0.32,0.192,0.448,0.192s0.319-0.064,0.448-0.192c0.256-0.256,0.256-0.64,0-0.896L19.072,12.752z
				 M24.832,12.752c-0.256-0.256-0.641-0.256-0.896,0s-0.256,0.64,0,0.896l0.832,0.832c0.129,0.128,0.32,0.192,0.448,0.192
				s0.32-0.064,0.448-0.192c0.256-0.256,0.256-0.64,0-0.896L24.832,12.752z M7.552,17.872c-0.256-0.256-0.64-0.256-0.896,0
				c-0.256,0.257-0.256,0.64,0,0.896L7.488,19.6c0.128,0.129,0.32,0.193,0.448,0.193s0.32-0.064,0.448-0.193
				c0.256-0.256,0.256-0.64,0-0.896L7.552,17.872z M13.312,17.872c-0.256-0.256-0.64-0.256-0.896,0c-0.256,0.257-0.256,0.64,0,0.896
				l0.832,0.832c0.128,0.129,0.32,0.193,0.448,0.193c0.128,0,0.32-0.064,0.448-0.193c0.256-0.256,0.256-0.64,0-0.896L13.312,17.872z
				 M19.072,17.872c-0.256-0.256-0.641-0.256-0.896,0c-0.256,0.257-0.256,0.64,0,0.896l0.832,0.832
				c0.128,0.129,0.32,0.193,0.448,0.193s0.319-0.064,0.448-0.193c0.256-0.256,0.256-0.64,0-0.896L19.072,17.872z M24.832,17.872
				c-0.256-0.256-0.641-0.256-0.896,0c-0.256,0.257-0.256,0.64,0,0.896l0.832,0.832c0.129,0.129,0.32,0.193,0.448,0.193
				s0.32-0.064,0.448-0.193c0.256-0.256,0.256-0.64,0-0.896L24.832,17.872z M7.552,22.992c-0.256-0.256-0.64-0.256-0.896,0
				c-0.256,0.256-0.256,0.641,0,0.896l0.832,0.832c0.128,0.127,0.32,0.19,0.448,0.19s0.32-0.063,0.448-0.19
				c0.256-0.257,0.256-0.642,0-0.896L7.552,22.992z M13.312,22.992c-0.256-0.256-0.64-0.256-0.896,0s-0.256,0.641,0,0.896
				l0.832,0.832c0.128,0.127,0.32,0.19,0.448,0.19c0.128,0,0.32-0.063,0.448-0.19c0.256-0.257,0.256-0.642,0-0.896L13.312,22.992z
				 M19.072,22.992c-0.256-0.256-0.641-0.256-0.896,0c-0.255,0.256-0.256,0.641,0,0.896l0.832,0.832
				c0.128,0.127,0.32,0.19,0.448,0.19s0.319-0.063,0.448-0.19c0.256-0.257,0.256-0.642,0-0.896L19.072,22.992z M24.832,22.992
				c-0.256-0.256-0.641-0.256-0.896,0c-0.254,0.256-0.256,0.641,0,0.896l0.832,0.832c0.129,0.127,0.32,0.19,0.448,0.19
				s0.32-0.063,0.448-0.19c0.256-0.257,0.256-0.642,0-0.896L24.832,22.992z"/>
		</g>
	</g>
</g>
</svg>
